<svg version="1.1" id="Layer_1" xmlns="http://www.w3.org/2000/svg" xmlns:xlink="http://www.w3.org/1999/xlink" x="0px" y="0px"
		width="100%" viewBox="0 0 623 623" enable-background="new 0 0 623 623" xml:space="preserve">
	<path fill="#181818" opacity="1.000000" stroke="none"
		d="
	M623.631958,104.658218
		C624.000000,243.020889 624.000000,381.041779 624.000000,519.531372
		C622.337708,522.081482 619.985840,522.128357 617.628296,522.160950
		C611.295593,522.248657 604.962524,522.180969 598.629700,522.205750
		C589.616577,522.241028 589.229187,522.593384 589.212524,531.410095
		C589.184082,546.409180 589.206726,561.408447 589.202698,576.407593
		C589.202148,578.574097 589.228455,580.741333 589.148071,582.906677
		C588.908691,589.351807 587.423950,590.877930 581.142883,591.142395
		C579.477661,591.212524 577.810364,591.201294 576.143799,591.201294
		C399.153656,591.205444 222.163528,591.206848 45.173397,591.198303
		C31.940243,591.197632 31.800938,591.052673 31.800440,577.744995
		C31.793829,400.921509 31.793819,224.098038 31.800430,47.274567
		C31.800928,33.954998 31.947056,33.802406 45.154869,33.801773
		C222.144989,33.793243 399.135132,33.792660 576.125244,33.802391
		C588.978210,33.803101 589.183105,34.028706 589.199341,47.074932
		C589.219055,62.907360 589.167419,78.739914 589.222290,94.572227
		C589.248413,102.092705 589.944214,102.732536 597.614624,102.787422
		C604.114014,102.833923 610.614502,102.723648 617.112915,102.848808
		C619.244690,102.889870 621.512451,102.585526 623.631958,104.658218
	z"/>
	<path fill="#62F8D5" opacity="1.000000" stroke="none"
		d="
	M624.000000,104.531342
		C612.996521,104.999725 601.990112,104.859100 590.991211,105.083427
		C587.627563,105.152031 586.907715,104.089226 586.929871,100.911293
		C587.069580,80.912430 586.916199,60.911438 587.077271,40.912899
		C587.106689,37.256874 586.503662,35.891525 582.337585,35.894337
		C401.172455,36.016609 220.007278,36.011654 38.842144,35.918186
		C35.048676,35.916229 33.899750,36.707020 33.902252,40.732830
		C34.014828,221.897919 34.013714,403.063110 33.907661,584.228210
		C33.905354,588.171143 34.927456,589.089844 38.803192,589.087646
		C219.968307,588.987183 401.133484,588.984314 582.298584,589.101257
		C586.386536,589.103882 587.116821,587.861145 587.083801,584.125916
		C586.907410,564.127625 587.063721,544.126587 586.934814,524.127625
		C586.914795,521.018372 587.513916,519.819885 590.952942,519.912476
		C600.445984,520.167847 609.950439,519.984070 619.450256,520.020813
		C620.730225,520.025757 622.143311,519.579529 623.620117,520.353699
		C624.000000,553.492981 623.954712,586.986084 624.079224,620.478577
		C624.090088,623.400330 623.565308,624.086914 620.522522,624.085510
		C415.232422,623.991150 209.942261,623.989258 4.652146,624.094238
		C1.288871,624.095947 0.939910,623.042847 0.940826,620.153687
		C1.005837,415.030151 1.007407,209.906601 0.928605,4.783096
		C0.927438,1.742974 1.508687,0.914783 4.715393,0.916236
		C209.838882,1.009169 414.962402,1.012770 620.085876,0.895790
		C623.682495,0.893739 624.099548,1.842839 624.085754,5.084643
		C623.945496,38.076847 624.000000,71.069885 624.000000,104.531342
	z"/>
	<path fill="#62F8D5" opacity="1.000000" stroke="none"
		d="
	M432.744934,290.412598
		C433.656799,298.754395 436.369995,306.282318 438.140137,314.006439
		C443.875336,339.032288 449.985901,363.972504 456.008026,388.932159
		C460.551453,407.763123 465.267456,426.552704 469.747955,445.398468
		C474.271515,464.425262 478.595886,483.499390 483.023804,502.548981
		C483.239624,503.477539 483.612274,504.369659 483.920685,505.305389
		C482.793304,506.503326 481.396545,505.968872 480.177032,505.970886
		C457.179718,506.008484 434.182220,505.961517 411.185120,506.041046
		C407.955200,506.052216 406.580505,505.590179 405.789978,501.662323
		C402.444733,485.041138 398.311951,468.579315 394.528900,452.045074
		C392.616577,443.687073 390.714325,435.322845 389.061523,426.911530
		C388.477966,423.941772 387.278595,422.928009 384.199432,422.935333
		C343.371033,423.032257 302.542206,423.031067 261.713776,422.938599
		C258.599731,422.931519 257.549164,424.042542 256.927734,426.995361
		C253.998489,440.913727 250.817444,454.779297 247.701126,468.658051
		C245.151718,480.011993 242.469696,491.337646 240.082764,502.725342
		C239.624252,504.912842 239.035568,506.013336 236.728760,506.011139
		C211.914185,505.987335 187.099564,505.996338 161.903137,505.996338
		C166.561035,486.971588 171.286728,468.369202 175.651382,449.682526
		C182.559052,420.108185 189.455185,390.535248 196.881332,361.082855
		C202.055054,340.563690 206.516632,319.865540 211.352982,299.260590
		C218.550995,268.593964 225.741302,237.925354 233.045624,207.283966
		C238.065125,186.227295 243.257874,165.211807 248.403732,144.185394
		C250.206833,136.817841 252.592712,129.548706 253.748154,122.085327
		C254.334396,118.298630 256.216339,119.010559 258.378296,119.009514
		C284.541962,118.996880 310.705627,119.001312 336.869293,119.001297
		C353.700714,119.001289 370.532715,119.074821 387.362946,118.933113
		C390.370758,118.907791 391.677856,119.298019 392.493408,122.754700
		C399.130432,150.885696 406.219116,178.909729 412.955048,207.017929
		C417.849945,227.443878 422.382507,247.956451 427.149933,268.413330
		C428.835510,275.646149 430.738159,282.828369 432.744934,290.412598
	z"/>
	<path fill="#181818" opacity="1.000000" stroke="none"
		d="
	M284.999878,303.002350
		C288.336700,288.258789 291.685089,273.951080 294.992798,259.633972
		C297.357178,249.399734 299.674957,239.154709 301.999481,228.911316
		C307.005768,206.849899 311.968628,184.778503 317.046295,162.733551
		C317.697052,159.908279 317.386047,156.645554 322.525024,156.732361
		C327.080322,156.809280 328.225616,158.701340 328.992371,162.275833
		C332.010376,176.345444 335.051636,190.410446 338.172241,204.457596
		C343.079407,226.546921 348.012512,248.630707 353.020874,270.697266
		C356.739655,287.081940 360.609344,303.432312 364.384613,319.804199
		C366.780396,330.193848 369.041260,340.615845 371.574371,350.971497
		C372.020813,352.796600 371.496826,352.975739 370.106476,352.990967
		C368.940369,353.003754 367.774048,352.999969 366.607819,352.999969
		C337.618164,353.000336 308.628052,352.920135 279.639313,353.083069
		C275.078766,353.108673 273.331390,352.910889 274.814880,347.337555
		C278.677002,332.827942 281.660187,318.084412 284.999878,303.002350
	z"/>
</svg>
