<svg version="1.1" id="Layer_1" xmlns="http://www.w3.org/2000/svg" xmlns:xlink="http://www.w3.org/1999/xlink" x="0px" y="0px"
	 width="100%" viewBox="0 0 1000 623" enable-background="new 0 0 1000 623" xml:space="preserve">
<path fill="#000000" opacity="1.000000" stroke="none" 
	d="
M800.664795,1.360916 
	C866.305359,1.000000 931.610840,1.028017 996.916016,0.916610 
	C1000.154480,0.911085 1001.106384,1.315992 1001.104309,4.912804 
	C1000.987305,209.991653 1000.986084,415.070557 1001.110535,620.149414 
	C1001.112793,623.873718 999.961975,624.077820 996.853821,624.073181 
	C931.881775,623.976257 866.909546,624.000000 801.468628,624.000000 
	C798.268738,621.733643 798.842041,618.559265 798.834106,615.629272 
	C798.763977,589.797546 798.860413,563.965515 798.777954,538.133911 
	C798.721191,520.368530 800.768066,522.339722 782.611023,522.204834 
	C780.611267,522.189941 778.611267,522.197266 776.611389,522.205322 
	C767.572815,522.241699 767.223450,522.561646 767.209778,531.398376 
	C767.185242,547.230774 767.222961,563.063232 767.194641,578.895630 
	C767.173645,590.608154 766.631775,591.190063 755.170654,591.191162 
	C577.347595,591.208130 399.524567,591.210449 221.701523,591.189392 
	C210.507187,591.188049 209.810516,590.484192 209.809341,579.240051 
	C209.790833,401.417023 209.791000,223.593979 209.809235,45.770935 
	C209.810379,34.515064 210.504333,33.812038 221.689590,33.810703 
	C399.512634,33.789528 577.335632,33.791805 755.158691,33.808777 
	C766.632751,33.809872 767.173401,34.389050 767.194641,46.092770 
	C767.223633,62.091808 767.179016,78.090950 767.213257,94.089966 
	C767.230774,102.288765 767.726074,102.752457 776.100403,102.789581 
	C781.266663,102.812477 786.433960,102.861786 791.599182,102.767815 
	C797.897888,102.653244 798.751892,101.836792 798.768250,95.376869 
	C798.836548,68.378555 798.788757,41.380062 798.798340,14.381637 
	C798.799255,11.881893 798.756653,9.380988 798.864258,6.882975 
	C798.943054,5.053438 798.842773,3.158000 800.664795,1.360916 
z"/>
<path fill="#000000" opacity="1.000000" stroke="none" 
	d="
M177.341187,623.632690 
	C119.692398,624.000000 62.384735,623.967590 5.077371,624.084778 
	C1.824836,624.091431 0.894435,623.664062 0.896466,620.080750 
	C1.012652,415.006226 1.013875,209.931610 0.890158,4.857105 
	C0.887920,1.146442 2.017597,0.919841 5.139504,0.925436 
	C62.113758,1.027545 119.088249,1.000000 176.531342,1.000000 
	C178.696747,2.399241 179.099060,4.292659 179.136536,6.370574 
	C179.178619,8.702837 179.203018,11.034743 179.203033,13.367037 
	C179.204834,212.788010 179.211838,412.208984 179.151840,611.629944 
	C179.150665,615.520325 180.229645,619.653687 177.341187,623.632690 
z"/>
<path fill="#62F8D5" opacity="1.000000" stroke="none" 
	d="
M177.468658,624.000000 
	C177.000107,416.645782 177.000214,209.291550 177.000153,1.468657 
	C384.687561,1.000000 592.375122,1.000000 800.531372,1.000000 
	C800.999939,34.165932 800.927917,67.332230 801.098022,100.497292 
	C801.117554,104.307205 800.107056,105.208351 796.422424,105.091904 
	C787.431580,104.807785 778.416382,104.758575 769.430298,105.109497 
	C765.450012,105.264931 764.890991,103.872704 764.920227,100.347710 
	C765.086121,80.349525 764.915955,60.348560 765.082214,40.350384 
	C765.110596,36.938782 764.373901,35.913174 760.775085,35.915085 
	C579.279175,36.011517 397.783173,36.010719 216.287247,35.918823 
	C212.780670,35.917049 211.917099,36.781670 211.918869,40.287617 
	C212.010727,221.783554 212.011536,403.279541 211.915054,584.775452 
	C211.913147,588.375183 212.944260,589.077454 216.350357,589.075867 
	C397.846313,588.990234 579.342285,588.987793 760.838196,589.087769 
	C764.527527,589.089783 765.100769,587.899658 765.075989,584.586670 
	C764.924866,564.421570 765.069092,544.254272 764.930115,524.089050 
	C764.908203,520.911926 765.624084,519.826538 768.991333,519.916626 
	C778.151184,520.161682 787.329163,520.211182 796.485046,519.899902 
	C800.293884,519.770386 801.107483,520.877747 801.090088,524.565735 
	C800.934998,557.397461 800.999817,590.230225 800.999878,623.531372 
	C593.312439,624.000000 385.624878,624.000000 177.468658,624.000000 
z"/>
<path fill="#62F8D5" opacity="1.000000" stroke="none" 
	d="
M357.032898,434.146423 
	C360.371765,420.232910 363.704102,406.749908 366.991974,393.256073 
	C371.274658,375.679657 375.699463,358.135376 379.744812,340.504211 
	C386.501434,311.056274 393.688721,281.714203 400.744110,252.338531 
	C407.497253,224.221359 414.029846,196.050888 420.855927,167.948196 
	C424.551910,152.731842 428.066956,137.468155 431.702728,122.235474 
	C432.495972,118.912140 433.830566,118.975220 436.201050,118.983177 
	C448.033112,119.022911 459.865326,119.001297 471.697510,119.001297 
	C503.027771,119.001297 534.358032,119.000496 565.688293,119.003067 
	C567.906616,119.003242 569.439697,118.587128 570.253418,122.136612 
	C576.208008,148.112427 582.705994,173.963409 588.992126,199.863632 
	C594.628235,223.086227 600.445007,246.268433 605.753357,269.566162 
	C610.850708,291.937897 616.412659,314.192749 621.728271,336.508514 
	C627.081238,358.981293 632.426147,381.454102 637.844055,403.911438 
	C642.880249,424.786530 647.568359,445.746765 652.806458,466.579712 
	C656.035583,479.422852 658.693115,492.409729 661.663025,505.579376 
	C660.819153,506.517670 659.415771,505.967957 658.202820,505.970001 
	C635.205139,506.008759 612.207275,505.964020 589.209778,506.038452 
	C586.010132,506.048798 584.584351,505.645660 583.789734,501.686981 
	C580.452698,485.063568 576.322937,468.600128 572.540955,452.064941 
	C570.629395,443.706970 568.711182,435.346222 567.065735,426.933990 
	C566.483521,423.957184 565.307495,422.929535 562.222534,422.936707 
	C521.393372,423.031677 480.563934,423.031067 439.734833,422.938324 
	C436.632751,422.931274 435.552063,424.014587 434.929321,426.974792 
	C432.001221,440.893341 428.828278,454.760620 425.712280,468.639313 
	C423.163116,479.993286 420.473450,491.317078 418.083771,502.704132 
	C417.627167,504.879944 417.072876,506.012756 414.753387,506.010590 
	C389.937927,505.987488 365.122498,505.996246 340.048859,505.996246 
	C345.756561,481.955933 351.381561,458.264038 357.032898,434.146423 
z"/>
<path fill="#000000" opacity="1.000000" stroke="none" 
	d="
M463.996979,298.936035 
	C468.600891,278.853058 473.291260,259.221954 477.780609,239.545013 
	C483.604523,214.018661 489.269531,188.456055 495.000214,162.908447 
	C496.304535,157.093689 498.514069,155.788132 504.347290,156.949173 
	C506.035522,157.285187 505.786865,158.204941 506.040680,159.332062 
	C510.656494,179.830826 515.304504,200.322464 520.005127,220.801971 
	C525.280945,243.787613 530.715210,266.737305 535.896057,289.744171 
	C540.614014,310.695374 545.084839,331.702240 549.733459,353.000244 
	C542.093628,353.000244 534.445740,353.000244 526.797791,353.000244 
	C504.139099,353.000244 481.480438,353.000244 458.821747,353.000214 
	C452.075562,353.000183 451.694946,352.917206 453.074036,346.584747 
	C456.511322,330.801514 460.329041,315.101166 463.996979,298.936035 
z"/>
</svg>